<svg width="24" height="24" viewBox="0 0 24 24" fill="none" xmlns="http://www.w3.org/2000/svg">
<path d="M6.19482 17.848C7.67795 20.3345 10.3945 22 13.5001 22C18.1946 22 22.0001 18.1945 22.0001 13.5C22.0001 10.4582 20.4023 7.78952 18.0001 6.2876" stroke="#0194F3" stroke-width="2" stroke-linecap="round" stroke-linejoin="round"></path>
<path d="M7.5 14.5V7.5C7.5 6.94772 7.94772 6.5 8.5 6.5H12.5C13.0523 6.5 13.5 6.94772 13.5 7.5V11.5C13.5 12.0523 13.0523 12.5 12.5 12.5H11M19 10.5C19 15.1944 15.1944 19 10.5 19C5.80558 19 2 15.1944 2 10.5C2 5.80558 5.80558 2 10.5 2C15.1944 2 19 5.80558 19 10.5Z" stroke="#0194F3" stroke-width="2" stroke-linecap="round" stroke-linejoin="round"></path>
</svg>