<svg width="24" height="24" viewBox="0 0 24 24" fill="none" xmlns="http://www.w3.org/2000/svg">
<path fill-rule="evenodd" clip-rule="evenodd" d="M4.59542 6.41601C4.31403 5.89341 4.40873 5.24812 4.82843 4.82843C5.24812 4.40873 5.89341 4.31403 6.41601 4.59542L8.69986 5.82519C9.11478 5.60297 9.5547 5.42135 10.0143 5.28564L10.7127 2.95783C10.8832 2.38932 11.4065 2 12 2C12.5935 2 13.1168 2.38932 13.2873 2.95783L13.9857 5.28564C14.4079 5.41031 14.8135 5.57372 15.1984 5.77175L17.383 4.59542C17.9056 4.31403 18.5509 4.40873 18.9706 4.82843C19.3903 5.24812 19.485 5.89341 19.2036 6.41601L18.0728 8.51605C18.3419 8.9841 18.5584 9.4862 18.7144 10.0143L21.0422 10.7127C21.6107 10.8832 22 11.4065 22 12C22 12.5935 21.6107 13.1168 21.0422 13.2873L18.7144 13.9857C18.5693 14.4771 18.3717 14.9459 18.1282 15.3858L19.2036 17.383C19.485 17.9056 19.3903 18.5509 18.9706 18.9706C18.5509 19.3903 17.9056 19.485 17.383 19.2036L15.3858 18.1282C14.9459 18.3717 14.4771 18.5693 13.9857 18.7144L13.2873 21.0422C13.1168 21.6107 12.5935 22 12 22C11.4065 22 10.8832 21.6107 10.7127 21.0422L10.0143 18.7144C9.4862 18.5584 8.9841 18.3419 8.51605 18.0728L6.41601 19.2036C5.89341 19.485 5.24812 19.3903 4.82843 18.9706C4.40873 18.5509 4.31403 17.9056 4.59542 17.383L5.77175 15.1984C5.57372 14.8135 5.41031 14.4079 5.28564 13.9857L2.95783 13.2873C2.38932 13.1168 2 12.5935 2 12C2 11.4065 2.38932 10.8832 2.95783 10.7127L5.28564 10.0143C5.42135 9.5547 5.60297 9.11478 5.82519 8.69986L4.59542 6.41601Z" stroke="#0194F3" stroke-width="2" stroke-linecap="round" stroke-linejoin="round"></path>
<path fill-rule="evenodd" clip-rule="evenodd" d="M12 15C13.6569 15 15 13.6569 15 12C15 10.3431 13.6569 9 12 9C10.3431 9 9 10.3431 9 12C9 13.6569 10.3431 15 12 15Z" stroke="#0194F3" stroke-width="2" stroke-linecap="round" stroke-linejoin="round"></path>
</svg>